<svg viewBox="0 0 347 116" fill="none" xmlns="http://www.w3.org/2000/svg">
<path d="M115.144 56.2161L82.5661 23.6378C81.5831 22.652 79.9849 22.652 79.0019 23.6378L59.9307 42.709L73.4406 56.2189C74.4237 57.2048 74.4237 58.8002 73.4406 59.7832L59.9307 73.2931L79.0019 92.3643C79.9877 93.3474 81.5831 93.3474 82.5661 92.3643L115.144 59.786C116.127 58.803 116.127 57.2048 115.144 56.2218V56.2161Z" fill="url(#paint0_linear_2965_2168)"/>
<path d="M45.7101 58.2836C45.6876 58.0926 45.6876 57.9044 45.7101 57.7134C45.7719 57.1657 46.0022 56.6349 46.4207 56.2164L59.9306 42.7064L47.6509 30.4267C47.1173 29.8931 46.4095 29.66 45.7101 29.7021C45.1175 29.7386 44.5361 29.9745 44.0839 30.4267L26.2822 48.2284L34.45 56.3961C35.3347 57.2809 35.3347 58.7189 34.45 59.6037L26.2822 67.7714L44.0839 85.5731C44.5361 86.0253 45.1175 86.2584 45.7101 86.2977C46.4067 86.3399 47.1173 86.1067 47.6509 85.5731L59.9306 73.2934L46.4207 59.7834C46.0022 59.3649 45.7719 58.8313 45.7101 58.2864V58.2836Z" fill="url(#paint1_linear_2965_2168)"/>
<path d="M45.7102 58.5643V57.9941C45.6877 58.1851 45.6877 58.3733 45.7102 58.5643Z" fill="url(#paint2_linear_2965_2168)"/>
<path d="M45.7102 58.5643V57.9941C45.6877 58.1851 45.6877 58.3733 45.7102 58.5643Z" fill="url(#paint3_linear_2965_2168)"/>
<path d="M18.2941 56.2163L26.2849 48.2255L19.2209 41.1616C18.3362 40.2769 16.8981 40.2769 16.0134 41.1616L0.781723 56.3933C-0.103022 57.278 -0.103022 58.7161 0.781723 59.6008L16.0134 74.8325C16.8981 75.7173 18.3362 75.7173 19.2209 74.8325L26.2849 67.7686L18.2941 59.7778C17.311 58.7947 17.311 57.1966 18.2941 56.2135V56.2163Z" fill="url(#paint4_linear_2965_2168)"/>
<path d="M141.38 30.88C142.42 30.88 143.333 30.7467 144.12 30.48C144.92 30.2133 145.58 29.84 146.1 29.36C146.633 28.8667 147.033 28.2733 147.3 27.58C147.567 26.8867 147.7 26.1133 147.7 25.26C147.7 24.42 147.567 23.6667 147.3 23C147.047 22.3333 146.66 21.7667 146.14 21.3C145.62 20.8333 144.96 20.48 144.16 20.24C143.373 19.9867 142.447 19.86 141.38 19.86H137.1V30.88H141.38ZM141.38 16.2C143.26 16.2 144.887 16.42 146.26 16.86C147.647 17.3 148.787 17.92 149.68 18.72C150.587 19.5067 151.26 20.46 151.7 21.58C152.14 22.6867 152.36 23.9133 152.36 25.26C152.36 26.6333 152.127 27.8933 151.66 29.04C151.193 30.1733 150.5 31.1533 149.58 31.98C148.66 32.7933 147.513 33.4333 146.14 33.9C144.78 34.3533 143.193 34.58 141.38 34.58H137.1V45H132.42V16.2H141.38ZM163.838 24.28C165.345 24.28 166.705 24.5267 167.918 25.02C169.145 25.5133 170.185 26.2133 171.038 27.12C171.905 28.0267 172.572 29.1267 173.038 30.42C173.505 31.7133 173.738 33.1667 173.738 34.78C173.738 36.3933 173.505 37.8467 173.038 39.14C172.572 40.4333 171.905 41.54 171.038 42.46C170.185 43.3667 169.145 44.0667 167.918 44.56C166.705 45.0533 165.345 45.3 163.838 45.3C162.318 45.3 160.945 45.0533 159.718 44.56C158.505 44.0667 157.465 43.3667 156.598 42.46C155.732 41.54 155.065 40.4333 154.598 39.14C154.132 37.8467 153.898 36.3933 153.898 34.78C153.898 33.1667 154.132 31.7133 154.598 30.42C155.065 29.1267 155.732 28.0267 156.598 27.12C157.465 26.2133 158.505 25.5133 159.718 25.02C160.945 24.5267 162.318 24.28 163.838 24.28ZM163.838 41.94C165.678 41.94 167.045 41.3267 167.938 40.1C168.845 38.86 169.298 37.0933 169.298 34.8C169.298 32.5067 168.845 30.74 167.938 29.5C167.045 28.2467 165.678 27.62 163.838 27.62C161.972 27.62 160.585 28.2467 159.678 29.5C158.772 30.74 158.318 32.5067 158.318 34.8C158.318 37.0933 158.772 38.86 159.678 40.1C160.585 41.3267 161.972 41.94 163.838 41.94ZM206.218 24.6L199.678 45H196.258C195.858 45 195.578 44.74 195.418 44.22L191.358 31.52C191.251 31.16 191.151 30.8 191.058 30.44C190.978 30.08 190.904 29.7267 190.838 29.38C190.691 30.1 190.511 30.82 190.298 31.54L186.178 44.22C186.031 44.74 185.718 45 185.238 45H181.978L175.438 24.6H178.838C179.171 24.6 179.444 24.6867 179.658 24.86C179.884 25.02 180.031 25.2133 180.098 25.44L183.498 37.32C183.631 37.8667 183.744 38.4 183.838 38.92C183.944 39.4267 184.038 39.9333 184.118 40.44C184.251 39.9333 184.391 39.4267 184.538 38.92C184.684 38.4 184.838 37.8667 184.998 37.32L188.818 25.38C188.884 25.14 189.018 24.9467 189.218 24.8C189.431 24.64 189.684 24.56 189.978 24.56H191.858C192.164 24.56 192.424 24.64 192.638 24.8C192.851 24.9467 192.991 25.14 193.058 25.38L196.778 37.32C196.938 37.8667 197.084 38.4 197.218 38.92C197.364 39.44 197.498 39.96 197.618 40.48C197.711 39.9733 197.811 39.46 197.918 38.94C198.024 38.42 198.151 37.88 198.298 37.32L201.758 25.44C201.838 25.2 201.984 25 202.198 24.84C202.411 24.68 202.671 24.6 202.978 24.6H206.218ZM222.422 32.5C222.422 31.78 222.315 31.1133 222.102 30.5C221.902 29.8733 221.602 29.3333 221.202 28.88C220.802 28.4133 220.302 28.0533 219.702 27.8C219.115 27.5333 218.435 27.4 217.662 27.4C216.102 27.4 214.875 27.8467 213.982 28.74C213.089 29.6333 212.522 30.8867 212.282 32.5H222.422ZM212.162 35.14C212.215 36.3 212.395 37.3067 212.702 38.16C213.009 39 213.415 39.7 213.922 40.26C214.442 40.82 215.055 41.24 215.762 41.52C216.482 41.7867 217.282 41.92 218.162 41.92C219.002 41.92 219.729 41.8267 220.342 41.64C220.955 41.44 221.489 41.2267 221.942 41C222.395 40.76 222.782 40.5467 223.102 40.36C223.422 40.16 223.715 40.06 223.982 40.06C224.329 40.06 224.595 40.1933 224.782 40.46L226.002 42.04C225.495 42.64 224.922 43.1467 224.282 43.56C223.642 43.9733 222.962 44.3133 222.242 44.58C221.522 44.8333 220.782 45.0133 220.022 45.12C219.262 45.24 218.522 45.3 217.802 45.3C216.389 45.3 215.075 45.0667 213.862 44.6C212.662 44.12 211.615 43.42 210.722 42.5C209.842 41.58 209.149 40.44 208.642 39.08C208.149 37.72 207.902 36.1533 207.902 34.38C207.902 32.9667 208.122 31.6467 208.562 30.42C209.015 29.1933 209.655 28.1267 210.482 27.22C211.322 26.3133 212.335 25.6 213.522 25.08C214.722 24.5467 216.075 24.28 217.582 24.28C218.835 24.28 219.995 24.4867 221.062 24.9C222.129 25.3 223.049 25.8933 223.822 26.68C224.595 27.4667 225.195 28.4333 225.622 29.58C226.062 30.7133 226.282 32.0067 226.282 33.46C226.282 34.1267 226.209 34.5733 226.062 34.8C225.915 35.0267 225.649 35.14 225.262 35.14H212.162ZM234.352 28.38C234.992 27.0867 235.765 26.0733 236.672 25.34C237.579 24.5933 238.665 24.22 239.932 24.22C240.372 24.22 240.785 24.2733 241.172 24.38C241.559 24.4733 241.905 24.62 242.212 24.82L241.912 28.06C241.859 28.2867 241.772 28.4467 241.652 28.54C241.545 28.62 241.399 28.66 241.212 28.66C241.012 28.66 240.725 28.6267 240.352 28.56C239.979 28.48 239.585 28.44 239.172 28.44C238.572 28.44 238.039 28.5267 237.572 28.7C237.119 28.8733 236.705 29.1267 236.332 29.46C235.972 29.7933 235.652 30.2 235.372 30.68C235.092 31.16 234.832 31.7067 234.592 32.32V45H230.292V24.6H232.792C233.245 24.6 233.559 24.6867 233.732 24.86C233.905 25.02 234.025 25.3067 234.092 25.72L234.352 28.38ZM257.734 32.5C257.734 31.78 257.628 31.1133 257.414 30.5C257.214 29.8733 256.914 29.3333 256.514 28.88C256.114 28.4133 255.614 28.0533 255.014 27.8C254.428 27.5333 253.748 27.4 252.974 27.4C251.414 27.4 250.188 27.8467 249.294 28.74C248.401 29.6333 247.834 30.8867 247.594 32.5H257.734ZM247.474 35.14C247.528 36.3 247.708 37.3067 248.014 38.16C248.321 39 248.728 39.7 249.234 40.26C249.754 40.82 250.368 41.24 251.074 41.52C251.794 41.7867 252.594 41.92 253.474 41.92C254.314 41.92 255.041 41.8267 255.654 41.64C256.268 41.44 256.801 41.2267 257.254 41C257.708 40.76 258.094 40.5467 258.414 40.36C258.734 40.16 259.028 40.06 259.294 40.06C259.641 40.06 259.908 40.1933 260.094 40.46L261.314 42.04C260.808 42.64 260.234 43.1467 259.594 43.56C258.954 43.9733 258.274 44.3133 257.554 44.58C256.834 44.8333 256.094 45.0133 255.334 45.12C254.574 45.24 253.834 45.3 253.114 45.3C251.701 45.3 250.388 45.0667 249.174 44.6C247.974 44.12 246.928 43.42 246.034 42.5C245.154 41.58 244.461 40.44 243.954 39.08C243.461 37.72 243.214 36.1533 243.214 34.38C243.214 32.9667 243.434 31.6467 243.874 30.42C244.328 29.1933 244.968 28.1267 245.794 27.22C246.634 26.3133 247.648 25.6 248.834 25.08C250.034 24.5467 251.388 24.28 252.894 24.28C254.148 24.28 255.308 24.4867 256.374 24.9C257.441 25.3 258.361 25.8933 259.134 26.68C259.908 27.4667 260.508 28.4333 260.934 29.58C261.374 30.7133 261.594 32.0067 261.594 33.46C261.594 34.1267 261.521 34.5733 261.374 34.8C261.228 35.0267 260.961 35.14 260.574 35.14H247.474ZM278.624 29.62C278.024 28.8467 277.364 28.3067 276.644 28C275.924 27.6933 275.144 27.54 274.304 27.54C272.624 27.54 271.311 28.16 270.364 29.4C269.418 30.6267 268.944 32.4467 268.944 34.86C268.944 36.1133 269.051 37.1867 269.264 38.08C269.478 38.96 269.784 39.68 270.184 40.24C270.584 40.8 271.071 41.2067 271.644 41.46C272.218 41.7133 272.864 41.84 273.584 41.84C274.678 41.84 275.618 41.6067 276.404 41.14C277.204 40.66 277.944 39.9867 278.624 39.12V29.62ZM282.924 15.4V45H280.324C279.751 45 279.384 44.7267 279.224 44.18L278.844 41.96C277.991 42.96 277.018 43.7667 275.924 44.38C274.844 44.9933 273.584 45.3 272.144 45.3C270.998 45.3 269.958 45.0733 269.024 44.62C268.091 44.1533 267.291 43.48 266.624 42.6C265.958 41.72 265.438 40.6333 265.064 39.34C264.704 38.0333 264.524 36.54 264.524 34.86C264.524 33.34 264.724 31.9333 265.124 30.64C265.538 29.3467 266.124 28.2267 266.884 27.28C267.644 26.32 268.564 25.5733 269.644 25.04C270.738 24.4933 271.958 24.22 273.304 24.22C274.504 24.22 275.524 24.4133 276.364 24.8C277.204 25.1733 277.958 25.7 278.624 26.38V15.4H282.924ZM302.443 39.88C303.043 40.6533 303.697 41.2 304.403 41.52C305.123 41.8267 305.903 41.98 306.743 41.98C308.437 41.98 309.757 41.3667 310.703 40.14C311.65 38.9133 312.123 37.0133 312.123 34.44C312.123 32.0933 311.71 30.38 310.883 29.3C310.07 28.22 308.903 27.68 307.383 27.68C306.33 27.68 305.41 27.92 304.623 28.4C303.85 28.8667 303.123 29.54 302.443 30.42V39.88ZM302.443 27.3C303.283 26.38 304.223 25.6467 305.263 25.1C306.303 24.5533 307.49 24.28 308.823 24.28C310.01 24.28 311.077 24.5133 312.023 24.98C312.983 25.4333 313.797 26.0933 314.463 26.96C315.13 27.8267 315.643 28.88 316.003 30.12C316.363 31.3467 316.543 32.7333 316.543 34.28C316.543 35.9333 316.337 37.44 315.923 38.8C315.523 40.1467 314.943 41.3067 314.183 42.28C313.423 43.24 312.503 43.9867 311.423 44.52C310.343 45.04 309.137 45.3 307.803 45.3C307.15 45.3 306.557 45.2333 306.023 45.1C305.49 44.98 304.997 44.8 304.543 44.56C304.09 44.32 303.67 44.0333 303.283 43.7C302.91 43.3667 302.55 42.9867 302.203 42.56L302.023 44.14C301.957 44.4467 301.837 44.6667 301.663 44.8C301.49 44.9333 301.25 45 300.943 45H298.143V15.4H302.443V27.3ZM338.275 24.6L327.035 50.8C326.888 51.1067 326.708 51.3467 326.495 51.52C326.295 51.6933 325.981 51.78 325.555 51.78H322.375L326.135 43.62L317.815 24.6H321.555C321.915 24.6 322.188 24.6867 322.375 24.86C322.575 25.02 322.721 25.2133 322.815 25.44L327.675 37.02C327.795 37.3533 327.901 37.6867 327.995 38.02C328.101 38.34 328.201 38.6733 328.295 39.02C328.401 38.6733 328.508 38.3333 328.615 38C328.721 37.6667 328.841 37.3333 328.975 37L333.635 25.44C333.728 25.2 333.881 25 334.095 24.84C334.321 24.68 334.568 24.6 334.835 24.6H338.275Z" fill="black"/>
<path d="M141.04 89L131.88 61H138.6L146.56 85.8H143.2L151.52 61H157.52L165.52 85.8H162.28L170.44 61H176.64L167.48 89H160.52L153.44 67.24H155.28L148 89H141.04ZM180.258 89V61H186.738V89H180.258ZM199.183 82.6L198.823 75.12L212.223 61H219.423L207.343 74L203.743 77.84L199.183 82.6ZM193.383 89V61H199.823V89H193.383ZM212.543 89L202.583 76.8L206.823 72.2L220.103 89H212.543ZM222.992 89V61H229.472V89H222.992ZM236.117 89V61H249.797C253.317 61 255.957 61.6667 257.717 63C259.504 64.3333 260.397 66.0933 260.397 68.28C260.397 69.7467 260.037 71.0267 259.317 72.12C258.597 73.1867 257.61 74.0133 256.357 74.6C255.104 75.1867 253.664 75.48 252.037 75.48L252.797 73.84C254.557 73.84 256.117 74.1333 257.477 74.72C258.837 75.28 259.89 76.12 260.637 77.24C261.41 78.36 261.797 79.7333 261.797 81.36C261.797 83.76 260.85 85.64 258.957 87C257.064 88.3333 254.277 89 250.597 89H236.117ZM242.557 84.12H250.117C251.797 84.12 253.064 83.8533 253.917 83.32C254.797 82.76 255.237 81.88 255.237 80.68C255.237 79.5067 254.797 78.64 253.917 78.08C253.064 77.4933 251.797 77.2 250.117 77.2H242.077V72.48H248.997C250.57 72.48 251.77 72.2133 252.597 71.68C253.45 71.12 253.877 70.28 253.877 69.16C253.877 68.0667 253.45 67.2533 252.597 66.72C251.77 66.16 250.57 65.88 248.997 65.88H242.557V84.12ZM263.023 89L275.503 61H281.903L294.423 89H287.623L277.383 64.28H279.943L269.663 89H263.023ZM269.263 83L270.983 78.08H285.383L287.143 83H269.263ZM306.528 89.48C304.288 89.48 302.141 89.1867 300.088 88.6C298.034 87.9867 296.381 87.2 295.128 86.24L297.328 81.36C298.528 82.2133 299.941 82.92 301.568 83.48C303.221 84.0133 304.888 84.28 306.568 84.28C307.848 84.28 308.874 84.16 309.648 83.92C310.448 83.6533 311.034 83.2933 311.408 82.84C311.781 82.3867 311.968 81.8667 311.968 81.28C311.968 80.5333 311.674 79.9467 311.088 79.52C310.501 79.0667 309.728 78.7067 308.768 78.44C307.808 78.1467 306.741 77.88 305.568 77.64C304.421 77.3733 303.261 77.0533 302.088 76.68C300.941 76.3067 299.888 75.8267 298.928 75.24C297.968 74.6533 297.181 73.88 296.568 72.92C295.981 71.96 295.688 70.7333 295.688 69.24C295.688 67.64 296.114 66.1867 296.968 64.88C297.848 63.5467 299.154 62.4933 300.888 61.72C302.648 60.92 304.848 60.52 307.488 60.52C309.248 60.52 310.981 60.7333 312.688 61.16C314.394 61.56 315.901 62.1733 317.208 63L315.208 67.92C313.901 67.1733 312.594 66.6267 311.288 66.28C309.981 65.9067 308.701 65.72 307.448 65.72C306.194 65.72 305.168 65.8667 304.368 66.16C303.568 66.4533 302.994 66.84 302.648 67.32C302.301 67.7733 302.128 68.3067 302.128 68.92C302.128 69.64 302.421 70.2267 303.008 70.68C303.594 71.1067 304.368 71.4533 305.328 71.72C306.288 71.9867 307.341 72.2533 308.488 72.52C309.661 72.7867 310.821 73.0933 311.968 73.44C313.141 73.7867 314.208 74.2533 315.168 74.84C316.128 75.4267 316.901 76.2 317.488 77.16C318.101 78.12 318.408 79.3333 318.408 80.8C318.408 82.3733 317.968 83.8133 317.088 85.12C316.208 86.4267 314.888 87.48 313.128 88.28C311.394 89.08 309.194 89.48 306.528 89.48ZM328.796 72.28H342.276V77.32H328.796V72.28ZM329.276 83.8H344.516V89H322.836V61H343.996V66.2H329.276V83.8Z" fill="#0063BF"/>
<defs>
<linearGradient id="paint0_linear_2965_2168" x1="45.682" y1="57.9997" x2="115.883" y2="57.9997" gradientUnits="userSpaceOnUse">
<stop stop-color="#59A4D9"/>
<stop offset="0.08" stop-color="#4D9BD5"/>
<stop offset="0.34" stop-color="#2B83CB"/>
<stop offset="0.58" stop-color="#1371C4"/>
<stop offset="0.81" stop-color="#0566C0"/>
<stop offset="1" stop-color="#0063BF"/>
</linearGradient>
<linearGradient id="paint1_linear_2965_2168" x1="-40.3293" y1="57.9999" x2="93.6409" y2="57.9999" gradientUnits="userSpaceOnUse">
<stop stop-color="#5BAF74"/>
<stop offset="0.36" stop-color="#45A36C"/>
<stop offset="0.7" stop-color="#379B67"/>
<stop offset="1" stop-color="#339966"/>
</linearGradient>
<linearGradient id="paint2_linear_2965_2168" x1="45.6821" y1="58.2806" x2="115.883" y2="58.2806" gradientUnits="userSpaceOnUse">
<stop stop-color="#59A4D9"/>
<stop offset="0.08" stop-color="#4D9BD5"/>
<stop offset="0.34" stop-color="#2B83CB"/>
<stop offset="0.58" stop-color="#1371C4"/>
<stop offset="0.81" stop-color="#0566C0"/>
<stop offset="1" stop-color="#0063BF"/>
</linearGradient>
<linearGradient id="paint3_linear_2965_2168" x1="17.5556" y1="58.2806" x2="74.1794" y2="58.2806" gradientUnits="userSpaceOnUse">
<stop stop-color="#339966"/>
<stop offset="0.15" stop-color="#339966"/>
<stop offset="1" stop-color="#339966"/>
</linearGradient>
<linearGradient id="paint4_linear_2965_2168" x1="0.118869" y1="57.9999" x2="35.1155" y2="57.9999" gradientUnits="userSpaceOnUse">
<stop stop-color="#CD2E29"/>
<stop offset="0.19" stop-color="#BA1D1A"/>
<stop offset="0.44" stop-color="#A70C0B"/>
<stop offset="0.71" stop-color="#9C0302"/>
<stop offset="1" stop-color="#990000"/>
</linearGradient>
</defs>
</svg>
