<svg xmlns="http://www.w3.org/2000/svg" width="598" height="166" fill="none" viewBox="0 0 598 166">
	<circle cx="283.396" cy="147.516" r="5.451" fill="#fef6e7" stroke="#ffe49c"/>
	<circle cx="314.494" cy="147.516" r="5.451" fill="#eaf3ff" stroke="#a3d3ff"/>
	<rect width="255.647" height="32.91" x="340.5" y="132.172" fill="#fff" stroke="#a3d3ff" stroke-width="3" rx="8.5"/>
	<path fill="#a3d3ff" d="M341.973 133.85h3.803v29.262h-3.803z"/>
	<path fill="#c4c4c4" d="M355.008 151.619h19.84v6h-19.84zm151.816 0h54.343v6h-54.343zm14.664-13h54.343v6h-54.343zm-142.332 13h30.191v6h-30.191zm107.824-13h30.191v6H486.98zm-131.972 0h127.664v6H355.008zm58.656 13h88.847v6h-88.847z"/>
	<rect width="255.647" height="122.646" x="340.5" y="2.629" fill="#fff" stroke="#a3d3ff" stroke-width="3" rx="8.5"/>
	<path fill="#a3d3ff" d="M341.973 4.66h3.803v118.804h-3.803z"/>
	<path fill="#c4c4c4" d="M355.008 8.619h19.84v6h-19.84zm93.16 13h21.565v6h-21.565zm25.875 0h21.565v6h-21.565zm25.879 0h14.664v6h-14.664zm18.976 0h27.603v6h-27.603zm-70.73 13h56.931v6h-56.931zm4.309 13h15.527v6h-15.527zm54.347 0h56.931v6h-56.931zm-151.816 0h54.343v6h-54.343zm58.656 0h34.504v6h-34.504zm58.656 0h30.191v6H472.32zm-82.812-13h54.343v6h-54.343zm117.316 39h54.343v6h-54.343zm14.664-13h54.343v6h-54.343zm-166.48-26h30.191v6h-30.191zm0 39h54.343v6h-54.343zm131.972-13h30.191v6H486.98zm63.836-39h24.153v6h-24.153zm-171.66-13h31.053v6h-31.053zm167.348 0h34.504v6h-34.504zm-131.981 0h127.664v6H414.523zm-59.515 52h127.664v6H355.008zm0 26h19.84v6h-19.84zm93.156 13h21.565v6h-21.565zm25.883 0h21.565v6h-21.565zm25.875 0h14.664v6h-14.664zm18.976 0h27.603v6h-27.603zm-70.734 13h56.931v6h-56.931zm-58.656 0h54.343v6h-54.343zm-34.5 0h30.191v6h-30.191zm195.804-13h24.153v6h-24.153zm-171.656-13h31.053v6h-31.053zm167.344 0h34.504v6H546.5zm-131.977 0h127.664v6H414.523zm-59.515 13h88.847v6h-88.847zm0-78h88.847v6h-88.847zm58.656 52h88.847v6h-88.847z"/>
	<rect width="255.647" height="32.91" x="1.5" y="132.172" fill="#fff" stroke="#ffe49c" stroke-width="3" rx="8.5"/>
	<path fill="#ffe49c" d="M2.973 133.851h3.803v29.262H2.973z"/>
	<path fill="#c4c4c4" d="M12.012 157.619h19.84v-6h-19.84zm93.16-13h21.565v-6h-21.565zm25.879 0h21.565v-6h-21.565zm25.875 0h14.664v-6h-14.664zm18.98 0h27.603v-6h-27.603zm31.914 0h24.153v-6H207.82zm-171.656 13h31.053v-6H36.164zm167.344 0h34.504v-6h-34.504zm-131.977 0h127.664v-6H71.531zm-59.519-13h88.847v-6H12.012z"/>
	<rect width="255.647" height="122.646" x="1.5" y="2.629" fill="#fff" stroke="#ffe49c" stroke-width="3" rx="8.5"/>
	<path fill="#ffe49c" d="M2.973 4.66h3.803v118.804H2.973z"/>
	<path fill="#c4c4c4" d="M109.484 118.619h15.527v-6h-15.527zm54.344 0h56.931v-6h-56.931zm0-25.999h54.343v-6h-54.343zm14.664 12.999h54.343v-6h-54.343zm-166.48 13h54.343v-6H12.012zm0-25.999h54.343v-6H12.012zm131.976 12.999h30.191v-6h-30.191zm-73.32 13h34.504v-6H70.668zm58.656 0h30.191v-6h-30.191zm-117.312-13h127.664v-6H12.012zM70.668 92.62h88.847v-6H70.668zm-58.656-13h19.84v-6h-19.84zm97.472-39h15.527v-6h-15.527zm-97.472-26h19.84v-6h-19.84zm93.16 52h21.565v-6h-21.565zm25.879 0h21.565v-6h-21.565zm25.875 0h14.664v-6h-14.664zm18.98 0h27.603v-6h-27.603zm-70.734-13h56.931v-6h-56.931zm58.656-13h56.931v-6h-56.931zm-117.312 13h54.343v-6H46.516zm117.312-39h54.343v-6h-54.343zm14.664 13h54.343v-6h-54.343zm-166.48 13h54.343v-6H12.012zm0 13h30.19v-6h-30.19zm24.152-39h30.191v-6h-30.19zm107.824 13h30.191v-6h-30.191zm-73.32 13h34.504v-6H70.668zm58.656 0h30.191v-6h-30.191zm78.496 26h24.153v-6H207.82zm-171.656 13h31.053v-6H36.164zm167.344 0h34.504v-6h-34.504zm-131.977 0h127.664v-6H71.531zm-59.519-52h127.664v-6H12.012zm0 39h88.847v-6H12.012zm58.656-52h88.847v-6H70.668z"/>
	<path fill="#fff" stroke="#72777d" stroke-linejoin="round" stroke-width="1.361" d="M356 58.5 298.5 1 241 58.5l57.5 57.5z"/>
	<path fill="#fc3" d="M303.262 52.027a2.04 2.04 0 0 0 0-3.044l-14.677-13.119c-.658-.588-1.701-.121-1.701.761v8.307l-22.325 2.838a2.04 2.04 0 0 0-1.784 2.025v1.42c0 1.027.765 1.895 1.784 2.025l22.325 2.838v8.307c0 .882 1.043 1.349 1.701.76z"/>
	<path fill="#36c" d="M294.082 66.675a2.04 2.04 0 0 0 0 3.044l14.677 13.12c.658.587 1.701.12 1.701-.762V73.77l22.324-2.838a2.04 2.04 0 0 0 1.784-2.025v-1.42a2.04 2.04 0 0 0-1.784-2.024l-22.324-2.839v-8.307c0-.882-1.043-1.349-1.701-.76z"/>
	<path stroke="#222" stroke-linecap="round" stroke-width="2.041" d="m290.625 82.884.453-10.817M268.09 61.259l10.817.452m-1.591 12.731 7.969-7.328m21.352-30.564v10.826m23.418 9.839h-10.827m1.061-12.787-7.655 7.655"/>
</svg>
