<svg xmlns="http://www.w3.org/2000/svg" width="598" height="166" fill="none" viewBox="0 0 598 166">
	<circle cx="-314.251" cy="147.516" r="5.451" fill="#fef6e7" stroke="#ffe49c" transform="scale(-1 1)"/>
	<circle cx="-283.153" cy="147.516" r="5.451" fill="#eaf3ff" stroke="#a3d3ff" transform="scale(-1 1)"/>
	<rect width="255.647" height="32.91" x="-257.147" y="132.172" fill="#fff" stroke="#a3d3ff" stroke-width="3" rx="8.5" transform="scale(-1 1)"/>
	<path fill="#a3d3ff" d="M255.674 133.85h-3.803v29.262h3.803z"/>
	<path fill="#c4c4c4" d="M242.639 151.619h-19.84v6h19.84zm-151.816 0H36.48v6h54.343zm-14.664-13H21.816v6h54.343zm142.332 13H188.3v6h30.191zm-107.824-13H80.476v6h30.191zm131.972 0H114.975v6h127.664zm-58.656 13H95.136v6h88.847z"/>
	<rect width="255.647" height="122.646" x="-257.147" y="2.629" fill="#fff" stroke="#a3d3ff" stroke-width="3" rx="8.5" transform="scale(-1 1)"/>
	<path fill="#a3d3ff" d="M255.674 4.66h-3.803v118.804h3.803z"/>
	<path fill="#c4c4c4" d="M242.639 8.619h-19.84v6h19.84zm-93.16 13h-21.565v6h21.565zm-25.875 0h-21.565v6h21.565zm-25.879 0H83.061v6h14.664zm-18.976 0H51.146v6h27.603zm70.73 13H92.548v6h56.931zm-4.309 13h-15.527v6h15.527zm-54.347 0H33.892v6h56.931zm151.816 0h-54.343v6h54.343zm-58.656 0h-34.504v6h34.504zm-58.656 0H95.136v6h30.191zm82.812-13h-54.343v6h54.343zm-117.316 39H36.48v6h54.343zm-14.664-13H21.816v6h54.343zm166.48-26h-30.191v6h30.191zm0 39h-54.343v6h54.343zm-131.972-13H80.476v6h30.191zm-63.836-39H22.678v6h24.153zm171.66-13h-31.053v6h31.053zm-167.348 0H16.639v6h34.504zm131.981 0H55.46v6h127.664zm59.515 52H114.975v6h127.664zm0 26h-19.84v6h19.84zm-93.156 13h-21.565v6h21.565zm-25.883 0h-21.565v6H123.6zm-25.875 0H83.061v6h14.664zm-18.976 0H51.146v6h27.603zm70.734 13H92.552v6h56.931zm58.656 0h-54.343v6h54.343zm34.5 0h-30.191v6h30.191zm-195.804-13H22.682v6h24.153zm171.656-13h-31.053v6h31.053zm-167.344 0H16.643v6h34.504zm131.977 0H55.46v6h127.664zm59.515 13h-88.847v6h88.847zm0-78h-88.847v6h88.847zm-58.656 52H95.136v6h88.847z"/>
	<rect width="255.647" height="32.91" x="-596.147" y="132.172" fill="#fff" stroke="#ffe49c" stroke-width="3" rx="8.5" transform="scale(-1 1)"/>
	<path fill="#ffe49c" d="M594.674 133.851h-3.803v29.262h3.803z"/>
	<path fill="#c4c4c4" d="M585.635 157.619h-19.84v-6h19.84zm-93.16-13H470.91v-6h21.565zm-25.879 0h-21.565v-6h21.565zm-25.875 0h-14.664v-6h14.664zm-18.98 0h-27.603v-6h27.603zm-31.914 0h-24.153v-6h24.153zm171.656 13H530.43v-6h31.053zm-167.344 0h-34.504v-6h34.504zm131.977 0H398.452v-6h127.664zm59.519-13h-88.847v-6h88.847z"/>
	<rect width="255.647" height="122.646" x="-596.147" y="2.629" fill="#fff" stroke="#ffe49c" stroke-width="3" rx="8.5" transform="scale(-1 1)"/>
	<path fill="#ffe49c" d="M594.674 4.66h-3.803v118.804h3.803z"/>
	<path fill="#c4c4c4" d="M488.163 118.619h-15.527v-6h15.527zm-54.344 0h-56.931v-6h56.931zm0-25.999h-54.343v-6h54.343zm-14.664 12.999h-54.343v-6h54.343zm166.48 13h-54.343v-6h54.343zm0-25.999h-54.343v-6h54.343zm-131.976 12.999h-30.191v-6h30.191zm73.32 13h-34.504v-6h34.504zm-58.656 0h-30.191v-6h30.191zm117.312-13H457.971v-6h127.664zM526.979 92.62h-88.847v-6h88.847zm58.656-13h-19.84v-6h19.84zm-97.472-39h-15.527v-6h15.527zm97.472-26h-19.84v-6h19.84zm-93.16 52H470.91v-6h21.565zm-25.879 0h-21.565v-6h21.565zm-25.875 0h-14.664v-6h14.664zm-18.98 0h-27.603v-6h27.603zm70.734-13h-56.931v-6h56.931zm-58.656-13h-56.931v-6h56.931zm117.312 13h-54.343v-6h54.343zm-117.312-39h-54.343v-6h54.343zm-14.664 13h-54.343v-6h54.343zm166.48 13h-54.343v-6h54.343zm0 13h-30.19v-6h30.19zm-24.152-39h-30.191v-6h30.19zm-107.824 13h-30.191v-6h30.191zm73.32 13h-34.504v-6h34.504zm-58.656 0h-30.191v-6h30.191zm-78.496 26h-24.153v-6h24.153zm171.656 13H530.43v-6h31.053zm-167.344 0h-34.504v-6h34.504zm131.977 0H398.452v-6h127.664zm59.519-52H457.971v-6h127.664zm0 39h-88.847v-6h88.847zm-58.656-52h-88.847v-6h88.847z"/>
	<path fill="#fff" stroke="#72777d" stroke-linejoin="round" stroke-width="1.361" d="m241.647 58.5 57.5-57.5 57.5 57.5-57.5 57.5z"/>
	<path fill="#fc3" d="M294.385 52.027a2.04 2.04 0 0 1 0-3.044l14.677-13.119c.658-.588 1.701-.121 1.701.761v8.307l22.325 2.838a2.04 2.04 0 0 1 1.784 2.025v1.42a2.04 2.04 0 0 1-1.784 2.025l-22.325 2.838v8.307c0 .882-1.043 1.349-1.701.76z"/>
	<path fill="#36c" d="M303.565 66.675a2.04 2.04 0 0 1 0 3.044l-14.677 13.12c-.658.587-1.701.12-1.701-.762V73.77l-22.324-2.838a2.04 2.04 0 0 1-1.784-2.025v-1.42a2.04 2.04 0 0 1 1.784-2.024l22.324-2.839v-8.307c0-.882 1.043-1.349 1.701-.76z"/>
	<path stroke="#222" stroke-linecap="round" stroke-width="2.041" d="m307.022 82.884-.453-10.817m22.988-10.808-10.817.452m1.591 12.731-7.969-7.328M291.01 36.55v10.826m-23.418 9.839h10.827m-1.061-12.787 7.655 7.655"/>
</svg>
