<svg xmlns="http://www.w3.org/2000/svg" width="476" height="178" fill="none" viewBox="0 0 476 178">
	<rect width="472" height="33" x="-473.719" y="92.5" fill="#fff" stroke="#ffe49c" stroke-width="3" rx="8.5" transform="scale(-1 1)"/>
	<path fill="#c4c4c4" d="M198 110.917h-19.84v6H198zm-24.148 0h-30.191v6h30.191zm-105.824-13H37.837v6h30.191zm135.972 0H72v6h132zm-64.656 13H50.497v6h88.847z"/>
	<path fill="#ffe49c" d="M472.219 94.111h-3.803v29.405h3.803z"/>
	<path fill="#c4c4c4" d="M463.219 117h-27v-6h27zm-127.391-13.083h-21.565v-6h21.565zm-25.879 0h-21.565v-6h21.565zm-25.875 0H269.41v-6h14.664zm-18.98 0h-27.603v-6h27.603zm-31.914 0h-24.153v-6h24.153zM431.219 117h-57v-6h57zm-193.727-.083h-34.504v-6h34.504zm131.977 0H241.805v-6h127.664zM463.219 104h-123v-6h123z"/>
	<rect width="472" height="33" x="-473.719" y="143.5" fill="#fff" stroke="#a3d3ff" stroke-width="3" rx="8.5" transform="scale(-1 1)"/>
	<path fill="#a3d3ff" d="M472.219 145.111h-3.803v29.405h3.803z"/>
	<path fill="#c4c4c4" d="M288 154.917h-51v-6h51zm-14 13h-51v-6h51zm189.192-13h-51v-6h51zM340.219 168h-62v-6h62zm122.973-.083h-119v-6h119zM407.219 155h-115v-6h115zM77 154.917H27v-6h50zm-13 13H13v-6h51zm169-13h-65v-6h65zm-137 13H68v-6h28zm123 0H100v-6h119zm-55-13H81v-6h83z"/>
	<rect width="472" height="72" x="-473.5" y="2.417" fill="#fff" stroke="#c8ccd1" stroke-width="3" rx="8.5" transform="scale(-1 1)"/>
	<path fill="#c8ccd1" d="M472 4.917h-4v68h4z"/>
	<path fill="#c4c4c4" d="M365.528 39.917h-15.527v-6h15.527zm97.472-26h-19.84v-6H463zm-93.16 52h-21.565v-6h21.565zm-25.879 0h-21.565v-6h21.565zm-25.875 0h-14.664v-6h14.664zm-18.98 0h-27.603v-6h27.603zm70.734-13h-56.931v-6h56.931zm-58.656-13h-56.931v-6h56.931zm117.312 13h-54.343v-6h54.343zm-117.312-39h-54.343v-6h54.343zm-14.664 13h-54.343v-6h54.343zm166.48 13h-54.343v-6H463zm0 13h-30.19v-6h30.189zm-24.152-39h-30.191v-6h30.19zm-107.824 13h-30.191v-6h30.191zm73.32 13H369.84v-6h34.504zm-58.656 0h-30.191v-6h30.191zm-78.496 26h-24.153v-6h24.153zm195.808-39H335.336v-6H463zm0 39h-88.847v-6H463zm-58.656-52h-88.847v-6h88.847zm-264.816 26h-15.527v-6h15.527zm112.472-26h-35v-6h35zm-108.16 52h-21.565v-6h21.565zm-25.879 0H96.396v-6h21.565zm-25.875 0H77.422v-6h14.664zm-18.98 0H45.503v-6h27.603zm70.734-13H86.909v-6h56.931zm-58.656-13H28.253v-6h56.931zm117.312 13h-54.343v-6h54.343zm-117.312-39H30.841v-6h54.343zm-14.664 13H16.177v-6H70.52zm178.48 13h-66v-6h66zm59 13H207v-6h101zm-95.152-39h-30.191v-6h30.191zm-107.824 13H74.833v-6h30.191zm73.32 13H143.84v-6h34.504zm-58.656 0H89.497v-6h30.191zm-78.496 26H17.039v-6h24.153zm195.808-39H109.336v-6H237zm0 39h-88.847v-6H237zm-58.656-52H89.497v-6h88.847z"/>
	<path fill="#fff" d="m178.219 88 60-60 60 60-60 60z"/>
	<path fill="#fc3" d="M233.914 81.083a2.15 2.15 0 0 1 0-3.166l14.974-13.645c.671-.611 1.735-.126 1.735.792v8.64l22.776 2.952c1.04.135 1.82 1.037 1.82 2.106v1.476c0 1.069-.78 1.971-1.82 2.106l-22.776 2.952v8.64c0 .918-1.064 1.403-1.735.792z"/>
	<path fill="#36c" d="M242.508 96.917a2.118 2.118 0 0 1 0 3.166l-15.331 13.645c-.687.611-1.777.126-1.777-.792v-8.64l-23.318-2.952a2.126 2.126 0 0 1-1.863-2.106v-1.476a2.126 2.126 0 0 1 1.863-2.106l23.318-2.952v-8.64c0-.918 1.09-1.403 1.777-.792z"/>
	<path fill="#222" fill-rule="evenodd" d="M246.521 114.634a1.07 1.07 0 0 0 1.024-1.114l-.474-11.341a1.07 1.07 0 0 0-2.139.09l.475 11.341a1.07 1.07 0 0 0 1.114 1.024m24.65-23.786a1.07 1.07 0 0 1-1.025 1.114l-11.341.474a1.07 1.07 0 0 1-.089-2.138l11.341-.475a1.07 1.07 0 0 1 1.114 1.025m-9.95 14.591a1.07 1.07 0 0 0-.063-1.512l-8.355-7.684a1.07 1.07 0 1 0-1.449 1.576l8.355 7.683a1.07 1.07 0 0 0 1.512-.063m-31.529-41.523c-.591 0-1.071.48-1.071 1.07v11.352a1.07 1.07 0 0 0 2.141 0V64.987a1.07 1.07 0 0 0-1.07-1.07zm-25.627 22.736a1.07 1.07 0 0 1 1.07-1.07h11.351a1.07 1.07 0 0 1 0 2.14h-11.351a1.07 1.07 0 0 1-1.07-1.07m10.462-14.312a1.24 1.24 0 0 0 0 1.637l7.895 8.684a.987.987 0 0 0 1.489 0 1.24 1.24 0 0 0 0-1.638l-7.895-8.684a.987.987 0 0 0-1.489 0z" clip-rule="evenodd"/>
	<path fill="#72777d" fill-rule="evenodd" d="M238.723 27.209a.71.71 0 0 0-1.008 0l-60.287 60.287a.713.713 0 0 0 0 1.008l60.287 60.287a.71.71 0 0 0 1.008 0l60.287-60.287a.713.713 0 0 0 0-1.008zM297.497 88l-59.278 59.278L178.941 88l59.278-59.278z" clip-rule="evenodd"/>
</svg>
