<svg xmlns="http://www.w3.org/2000/svg" width="476" height="178" fill="none" viewBox="0 0 476 178">
	<rect width="472" height="33" x="1.5" y="92.5" fill="#fff" stroke="#ffe49c" stroke-width="3" rx="8.5"/>
	<path fill="#c4c4c4" d="M277.219 110.917h19.84v6h-19.84zm24.148 0h30.191v6h-30.191zm105.824-13h30.191v6h-30.191zm-135.972 0h132v6h-132zm64.656 13h88.847v6h-88.847z"/>
	<path fill="#ffe49c" d="M3 94.111h3.803v29.405H3z"/>
	<path fill="#c4c4c4" d="M12 117h27v-6H12zm127.391-13.083h21.565v-6h-21.565zm25.879 0h21.565v-6H165.27zm25.875 0h14.664v-6h-14.664zm18.98 0h27.603v-6h-27.603zm31.914 0h24.153v-6h-24.153zM44 117h57v-6H44zm193.727-.083h34.504v-6h-34.504zm-131.977 0h127.664v-6H105.75zM12 104h123v-6H12z"/>
	<rect width="472" height="33" x="1.5" y="143.5" fill="#fff" stroke="#a3d3ff" stroke-width="3" rx="8.5"/>
	<path fill="#a3d3ff" d="M3 145.111h3.803v29.405H3z"/>
	<path fill="#c4c4c4" d="M187.219 154.917h51v-6h-51zm14 13h51v-6h-51zm-189.192-13h51v-6h-51zM135 168h62v-6h-62zm-122.973-.083h119v-6h-119zM68 155h115v-6H68zm330.219-.083h50v-6h-50zm13 13h51v-6h-51zm-169-13h65v-6h-65zm137 13h28v-6h-28zm-123 0h119v-6h-119zm55-13h83v-6h-83z"/>
	<rect width="472" height="72" x="1.719" y="2.417" fill="#fff" stroke="#c8ccd1" stroke-width="3" rx="8.5"/>
	<path fill="#c8ccd1" d="M3.219 4.917h4v68h-4z"/>
	<path fill="#c4c4c4" d="M109.691 39.917h15.527v-6h-15.527zm-97.472-26h19.84v-6h-19.84zm93.16 52h21.565v-6h-21.565zm25.879 0h21.565v-6h-21.565zm25.875 0h14.664v-6h-14.664zm18.98 0h27.603v-6h-27.603zm-70.734-13h56.931v-6h-56.931zm58.656-13h56.931v-6h-56.931zm-117.312 13h54.343v-6H46.723zm117.312-39h54.343v-6h-54.343zm14.664 13h54.343v-6h-54.343zm-166.48 13h54.343v-6H12.219zm0 13h30.19v-6H12.22zm24.152-39h30.191v-6h-30.19zm107.824 13h30.191v-6h-30.191zm-73.32 13h34.504v-6H70.875zm58.656 0h30.191v-6h-30.191zm78.496 26h24.153v-6h-24.153zm-195.808-39h127.664v-6H12.219zm0 39h88.847v-6H12.219zm58.656-52h88.847v-6H70.875zm264.816 26h15.527v-6h-15.527zm-112.472-26h35v-6h-35zm108.16 52h21.565v-6h-21.565zm25.879 0h21.565v-6h-21.565zm25.875 0h14.664v-6h-14.664zm18.98 0h27.603v-6h-27.603zm-70.734-13h56.931v-6h-56.931zm58.656-13h56.931v-6h-56.931zm-117.312 13h54.343v-6h-54.343zm117.312-39h54.343v-6h-54.343zm14.664 13h54.343v-6h-54.343zm-178.48 13h66v-6h-66zm-59 13h101v-6h-101zm95.152-39h30.191v-6h-30.191zm107.824 13h30.191v-6h-30.191zm-73.32 13h34.504v-6h-34.504zm58.656 0h30.191v-6h-30.191zm78.496 26h24.153v-6h-24.153zm-195.808-39h127.664v-6H238.219zm0 39h88.847v-6h-88.847zm58.656-52h88.847v-6h-88.847z"/>
	<path fill="#fff" d="m297 88-60-60-60 60 60 60z"/>
	<path fill="#fc3" d="M241.305 81.083a2.15 2.15 0 0 0 0-3.166l-14.974-13.645c-.671-.611-1.735-.126-1.735.792v8.64l-22.776 2.952c-1.04.135-1.82 1.037-1.82 2.106v1.476c0 1.069.78 1.971 1.82 2.106l22.776 2.952v8.64c0 .918 1.064 1.403 1.735.792z"/>
	<path fill="#36c" d="M232.711 96.917a2.118 2.118 0 0 0 0 3.166l15.331 13.645c.687.611 1.777.126 1.777-.792v-8.64l23.318-2.952A2.126 2.126 0 0 0 275 99.238v-1.476a2.126 2.126 0 0 0-1.863-2.106l-23.318-2.952v-8.64c0-.918-1.09-1.403-1.777-.792z"/>
	<path fill="#222" fill-rule="evenodd" d="M228.698 114.634a1.07 1.07 0 0 1-1.024-1.114l.474-11.341a1.07 1.07 0 0 1 2.139.09l-.475 11.341a1.07 1.07 0 0 1-1.114 1.024m-24.65-23.786a1.07 1.07 0 0 0 1.025 1.114l11.341.474a1.07 1.07 0 0 0 .089-2.138l-11.341-.475a1.07 1.07 0 0 0-1.114 1.025m9.95 14.591a1.07 1.07 0 0 1 .063-1.512l8.355-7.684a1.07 1.07 0 1 1 1.449 1.576l-8.355 7.683a1.07 1.07 0 0 1-1.512-.063m31.529-41.523c.591 0 1.071.48 1.071 1.07v11.352a1.07 1.07 0 0 1-2.141 0V64.987c0-.591.479-1.07 1.07-1.07zm25.627 22.736a1.07 1.07 0 0 0-1.07-1.07h-11.351a1.07 1.07 0 0 0 0 2.14h11.351a1.07 1.07 0 0 0 1.07-1.07M260.692 72.34a1.24 1.24 0 0 1 0 1.637l-7.895 8.684a.987.987 0 0 1-1.489 0 1.24 1.24 0 0 1 0-1.638l7.895-8.684a.987.987 0 0 1 1.489 0z" clip-rule="evenodd"/>
	<path fill="#72777d" fill-rule="evenodd" d="M236.496 27.209a.71.71 0 0 1 1.008 0l60.287 60.287a.713.713 0 0 1 0 1.008l-60.287 60.287a.71.71 0 0 1-1.008 0l-60.287-60.287a.713.713 0 0 1 0-1.008zM177.722 88 237 147.278 296.278 88 237 28.722z" clip-rule="evenodd"/>
</svg>
