<svg xmlns="http://www.w3.org/2000/svg" width="794" height="488" fill="none" viewBox="0 0 794 488">
	<defs>
		<clipPath id="a">
			<path d="M0 0v457.877L36.09 488l36.092-30.123L108.272 488l36.092-30.123L180.454 488l36.091-30.123L252.636 488l36.091-30.123L324.818 488l36.091-30.123L397 488l36.09-30.123L469.183 488l36.09-30.123L541.365 488l36.09-30.123L613.546 488l36.091-30.123L685.727 488l36.091-30.123L757.91 488 794 457.877V0z"/>
		</clipPath>
	</defs>
	<g clip-path="url(#a)">
		<path fill="#fff" d="M0 0h794v488H0"/>
		<path fill="#eaecf0" d="M33.083 66.272c0-24.1 18.046-42.173 42.106-42.173s42.106 18.074 42.106 42.173c0 24.098-18.045 42.172-42.106 42.172-24.06 0-42.106-18.074-42.106-42.172m81.205 69.284v-15.062h-75.19v15.062zm0 355.456V174.716h-75.19v319.309h75.19M700.765 15.062h78.197v18.074h-78.197zm-72.182 0h66.167v18.074h-66.167zm-72.181 0h66.166v18.074h-66.166zm-69.175 0h39.099v18.074h-39.099zm45.114 0h18.045v18.074h-18.045zm-69.174 0h18.045v18.074h-18.045zm312.788 33.135v12.05H499.258v-12.05zm3.007-3.012H496.25V63.26h282.712z"/>
		<path fill="#eaecf0" d="M505.273 51.21h6.015v6.025h-6.015z"/>
		<path fill="#eaecf0" d="M0 0v488h794V0zm3.008 3.012h787.984V456.47l-33.083 27.611-36.091-30.123-36.091 30.123-36.091-30.123-36.091 30.123-36.09-30.123-36.091 30.123-36.091-30.123-36.091 30.123-36.091-30.123L397 484.081l-36.091-30.123-36.091 30.123-36.091-30.123-36.091 30.123-36.091-30.123-36.09 30.123-36.091-30.123-36.091 30.123-36.091-30.123-36.091 30.123-33.083-27.614z"/>
		<path fill="#eaecf0" stroke="#eaecf0" stroke-linecap="round" stroke-width="1.214" d="M222 145.31h81.751V157H222zm364.252-.31H668v11.69h-81.748z"/>
		<path fill="#c8ccd1" stroke="#c8ccd1" stroke-linecap="round" stroke-width="2.158" d="M148.439 87.358h126.52v20.785h-126.52z"/>
		<circle cx="429.353" cy="232.822" r="5.451" fill="#fef6e7" stroke="#ffe49c"/>
		<circle cx="429.353" cy="362.822" r="5.451" fill="#fef6e7" stroke="#ffe49c"/>
		<circle cx="460.451" cy="232.822" r="5.451" fill="#eaf3ff" stroke="#a3d3ff"/>
		<circle cx="460.451" cy="362.822" r="5.451" fill="#eaf3ff" stroke="#a3d3ff"/>
		<rect width="595" height="31.582" x="147.5" y="176.5" fill="#f9f9f9" stroke="#e6e6e6" stroke-width="3" rx="8.5"/>
		<rect width="595" height="31.582" x="147.5" y="395.5" fill="#f9f9f9" stroke="#e6e6e6" stroke-width="3" rx="8.5"/>
		<rect width="255.647" height="122.646" x="147.457" y="220.5" stroke="#ffe49c" stroke-width="3" rx="8.5"/>
		<rect width="255.647" height="32.91" x="147.457" y="350.043" stroke="#ffe49c" stroke-width="3" rx="8.5"/>
		<rect width="255.647" height="122.646" x="486.457" y="220.5" stroke="#a3d3ff" stroke-width="3" rx="8.5"/>
		<rect width="255.647" height="32.91" x="486.457" y="350.043" stroke="#a3d3ff" stroke-width="3" rx="8.5"/>
		<path fill="#e6e6e6" d="M149 179h3v27h-3zm0 219h3v27h-3z"/>
		<path fill="#ffe49c" d="M148.93 222.531h3.803v118.804h-3.803zm0 129.19h3.803v29.262h-3.803z"/>
		<path fill="#a3d3ff" d="M487.93 222.531h3.803v118.804h-3.803zm0 129.19h3.803v29.262h-3.803z"/>
		<path fill="#c4c4c4" d="M157.799 199.874h19.486v-5.75h-19.486zm221.976-10.538h19.486v-5.75h-19.486zm23.721 0h30.5v-5.75h-30.5zm164.366 0h87.943v-5.75h-87.943zm-129.629 0h125.39v-5.75h-125.39zm38.979 10.538h21.181v-5.75h-21.181zm25.416 0h21.181v-5.75h-21.181zm25.417 0h14.403v-5.75h-14.403zm18.641 0h27.111v-5.75h-27.111zm31.343 0h23.722v-5.75h-23.722zm-192.318 0h87.264v-5.75h-87.264zm274.208-10.538H681.1v-5.75h-21.181zm25.416 0h21.181v-5.75h-21.181zm25.417 0h14.403v-5.75h-14.403zm-461.453 0h21.181v-5.75h-21.181zm25.417 0h21.181v-5.75h-21.181zm25.417 0h14.403v-5.75h-14.403zm18.641 0h27.111v-5.75h-27.111zm31.343 0h23.722v-5.75h-23.722zM181.52 199.874h30.5v-5.75h-30.5zm164.367 0h33.889v-5.75h-33.889zm-129.629 0h125.39v-5.75h-125.39zm-58.459-10.538h87.264v-5.75h-87.264zm0 229.538h19.486v-5.75h-19.486zm221.976-10.538h19.486v-5.75h-19.486zm23.721 0h30.5v-5.75h-30.5zm164.366 0h87.943v-5.75h-87.943zm-129.629 0h125.39v-5.75h-125.39zm38.979 10.538h21.181v-5.75h-21.181zm25.416 0h21.181v-5.75h-21.181zm25.417 0h14.403v-5.75h-14.403zm18.641 0h27.111v-5.75h-27.111zm31.343 0h23.722v-5.75h-23.722zm-192.318 0h87.264v-5.75h-87.264zm274.208-10.538H681.1v-5.75h-21.181zm25.416 0h21.181v-5.75h-21.181zm25.417 0h14.403v-5.75h-14.403zm-461.453 0h21.181v-5.75h-21.181zm25.417 0h21.181v-5.75h-21.181zm25.417 0h14.403v-5.75h-14.403zm18.641 0h27.111v-5.75h-27.111zm31.343 0h23.722v-5.75h-23.722zM181.52 418.874h30.5v-5.75h-30.5zm164.367 0h33.889v-5.75h-33.889zm-129.629 0h125.39v-5.75h-125.39zm-58.459-10.538h87.264v-5.75h-87.264zm97.642-71.846h15.527v-6h-15.527zm54.344 0h56.931v-6h-56.931zm0-26h54.343v-6h-54.343zm14.664 13h54.343v-6h-54.343zm-166.48 13h54.343v-6h-54.343zm0-26h54.343v-6h-54.343zm131.976 13h30.191v-6h-30.191zm-73.32 13h34.504v-6h-34.504zm58.656 0h30.191v-6h-30.191zm-117.312-13h127.664v-6H157.969zm58.656-13h88.847v-6h-88.847zm-58.657-13h19.84v-6h-19.84zm97.474-39h15.527v-6h-15.527zm-97.474-26h19.84v-6h-19.84zm93.161 52h21.565v-6h-21.565zm25.879 0h21.565v-6h-21.565zm25.876 0h14.664v-6h-14.664zm18.978 0h27.603v-6h-27.603zm-70.733-13h56.931v-6h-56.931zm58.657-13h56.931v-6h-56.931zm-117.313 13h54.343v-6h-54.343zm117.313-39h54.343v-6h-54.343zm14.664 13h54.343v-6H324.45zm-166.482 13h54.343v-6h-54.343zm0 13h30.191v-6h-30.191zm24.154-39h30.191v-6h-30.191zm107.823 13h30.191v-6h-30.191zm-73.32 13h34.504v-6h-34.504zm58.656 0h30.191v-6h-30.191zm78.497 26h24.153v-6h-24.153zm-171.656 13h31.053v-6h-31.053zm167.343 0h34.504v-6h-34.504zm-131.978 0h127.664v-6H217.487zm-59.519-52h127.664v-6H157.968zm0 39h88.847v-6h-88.847zm58.657-52h88.847v-6h-88.847zm-58.656 143h19.84v-6h-19.84zm93.161-13h21.565v-6H251.13zm25.878 0h21.565v-6h-21.565zm25.876 0h14.664v-6h-14.664zm18.979 0h27.603v-6h-27.603zm31.915 0h24.153v-6h-24.153zm-171.656 13h31.053v-6h-31.053zm167.344 0h34.504v-6h-34.504zm-131.979 0h127.664v-6H217.487zm-59.518-13h88.847v-6h-88.847zm342.994-136h19.84v6h-19.84zm93.16 13h21.565v6h-21.565zm25.879 0h21.565v6h-21.565zm25.876 0h14.664v6h-14.664zm18.978 0h27.603v6h-27.603zm-70.733 13h56.931v6h-56.931zm4.313 13h15.527v6h-15.527zm54.345 0h56.931v6h-56.931zm-151.818 0h54.343v6h-54.343zm58.656 0h34.504v6h-34.504zm58.656 0h30.191v6h-30.191zm-82.809-13h54.343v6h-54.343zm117.314 39h54.343v6H652.78zm14.664-13h54.343v6h-54.343zm-166.481-26h30.191v6h-30.191zm0 39h54.343v6h-54.343zm131.976-13h30.191v6h-30.191zm63.833-39h24.153v6h-24.153zm-171.657-13h31.053v6h-31.053zm167.345 0h34.504v6H692.46zm-131.979 0h127.664v6H560.481zm-59.518 52h127.664v6H500.963zm0 26h19.84v6h-19.84zm93.16 13h21.565v6h-21.565zm25.879 0h21.565v6h-21.565zm25.877 0h14.664v6h-14.664zm18.978 0h27.603v6h-27.603zm-70.734 13h56.931v6h-56.931zm-58.656 0h54.343v6h-54.343zm-34.504 0h30.191v6h-30.191zm195.808-13h24.153v6h-24.153zm-171.656-13h31.053v6h-31.053zm167.344 0h34.504v6h-34.504zm-131.977 0h127.664v6H560.482zm-59.519 13h88.847v6h-88.847zm0-78h88.847v6h-88.847zm58.657 52h88.847v6H559.62zm-58.657 78h19.84v6h-19.84zm151.817 0h54.343v6H652.78zm14.664-13h54.343v6h-54.343zm-142.329 13h30.191v6h-30.191zm107.824-13h30.191v6h-30.191zm-131.976 0h127.664v6H500.963zm58.657 13h88.847v6H559.62z"/>
	</g>
</svg>
