<svg viewBox="0 0 326 116" fill="none" xmlns="http://www.w3.org/2000/svg">
<rect x="35.6924" y="28" width="80.3077" height="29.7436" rx="6" fill="#BBDEFA"/>
<path d="M17.8457 51.8457C17.8457 48.532 20.532 45.8457 23.8457 45.8457H110C113.313 45.8457 116 48.532 116 51.8457V71.5722C116 74.8859 113.313 77.5722 110 77.5722H23.8457C20.532 77.5722 17.8457 74.8859 17.8457 71.5722V51.8457Z" fill="#6299DB"/>
<rect y="63.6924" width="116" height="23.7949" rx="6" fill="#3957A9"/>
<rect y="63.6924" width="116" height="23.7949" rx="6" fill="#3957A9"/>
<rect y="63.6924" width="116" height="23.7949" rx="6" fill="#3957A9"/>
<path d="M142.9 41.3C143.953 41.3 144.84 41.18 145.56 40.94C146.293 40.6867 146.887 40.3467 147.34 39.92C147.807 39.4933 148.14 38.9933 148.34 38.42C148.553 37.8333 148.66 37.2067 148.66 36.54C148.66 35.18 148.193 34.1133 147.26 33.34C146.34 32.5533 144.88 32.16 142.88 32.16H137.1V41.3H142.9ZM137.1 19.86V28.86H141.78C143.78 28.86 145.273 28.4733 146.26 27.7C147.247 26.9267 147.74 25.8133 147.74 24.36C147.74 22.7733 147.273 21.6267 146.34 20.92C145.42 20.2133 143.973 19.86 142 19.86H137.1ZM142 16.2C143.84 16.2 145.413 16.38 146.72 16.74C148.027 17.0867 149.1 17.5867 149.94 18.24C150.78 18.8933 151.393 19.6933 151.78 20.64C152.18 21.5733 152.38 22.6267 152.38 23.8C152.38 24.48 152.273 25.14 152.06 25.78C151.86 26.4067 151.54 27 151.1 27.56C150.673 28.1067 150.133 28.6 149.48 29.04C148.827 29.48 148.053 29.8467 147.16 30.14C151.24 31.0067 153.28 33.1733 153.28 36.64C153.28 37.8667 153.047 38.9933 152.58 40.02C152.127 41.0333 151.46 41.9133 150.58 42.66C149.713 43.3933 148.64 43.9667 147.36 44.38C146.08 44.7933 144.62 45 142.98 45H132.42V16.2H142ZM168.34 36.08C166.807 36.1333 165.514 36.26 164.46 36.46C163.407 36.6467 162.554 36.8933 161.9 37.2C161.247 37.4933 160.774 37.8467 160.48 38.26C160.2 38.6733 160.06 39.1267 160.06 39.62C160.06 40.1 160.134 40.5133 160.28 40.86C160.44 41.1933 160.654 41.4733 160.92 41.7C161.2 41.9133 161.52 42.0733 161.88 42.18C162.254 42.2733 162.66 42.32 163.1 42.32C164.22 42.32 165.18 42.1133 165.98 41.7C166.794 41.2733 167.58 40.66 168.34 39.86V36.08ZM156.94 27.44C159.247 25.2933 161.994 24.22 165.18 24.22C166.354 24.22 167.394 24.4133 168.3 24.8C169.22 25.1733 169.987 25.7067 170.6 26.4C171.227 27.0933 171.7 27.92 172.02 28.88C172.354 29.8267 172.52 30.88 172.52 32.04V45H170.6C170.187 45 169.874 44.94 169.66 44.82C169.447 44.6867 169.267 44.4267 169.12 44.04L168.7 42.38C168.18 42.8467 167.667 43.2667 167.16 43.64C166.654 44 166.127 44.3067 165.58 44.56C165.047 44.8133 164.467 45 163.84 45.12C163.227 45.2533 162.547 45.32 161.8 45.32C160.974 45.32 160.2 45.2067 159.48 44.98C158.774 44.7533 158.16 44.4133 157.64 43.96C157.12 43.4933 156.707 42.92 156.4 42.24C156.107 41.56 155.96 40.76 155.96 39.84C155.96 39.0533 156.167 38.2867 156.58 37.54C157.007 36.7933 157.7 36.1267 158.66 35.54C159.634 34.94 160.907 34.4467 162.48 34.06C164.067 33.6733 166.02 33.4533 168.34 33.4V32.04C168.34 30.5733 168.027 29.48 167.4 28.76C166.774 28.04 165.854 27.68 164.64 27.68C163.814 27.68 163.12 27.7867 162.56 28C162 28.2 161.514 28.42 161.1 28.66C160.687 28.9 160.32 29.1267 160 29.34C159.68 29.54 159.34 29.64 158.98 29.64C158.687 29.64 158.434 29.5667 158.22 29.42C158.02 29.26 157.854 29.0667 157.72 28.84L156.94 27.44ZM189.738 28.3C189.631 28.4867 189.511 28.62 189.378 28.7C189.244 28.78 189.078 28.82 188.878 28.82C188.651 28.82 188.404 28.7533 188.138 28.62C187.871 28.4733 187.558 28.3133 187.198 28.14C186.838 27.9667 186.411 27.8133 185.918 27.68C185.438 27.5333 184.871 27.46 184.218 27.46C183.684 27.46 183.198 27.5267 182.758 27.66C182.331 27.78 181.964 27.96 181.658 28.2C181.364 28.4267 181.138 28.7 180.978 29.02C180.818 29.3267 180.738 29.66 180.738 30.02C180.738 30.5 180.884 30.9 181.178 31.22C181.471 31.54 181.858 31.82 182.338 32.06C182.818 32.2867 183.364 32.4933 183.978 32.68C184.591 32.8667 185.218 33.0667 185.858 33.28C186.498 33.4933 187.124 33.74 187.738 34.02C188.351 34.3 188.898 34.6467 189.378 35.06C189.858 35.46 190.244 35.9533 190.538 36.54C190.831 37.1133 190.978 37.8133 190.978 38.64C190.978 39.6 190.804 40.4867 190.458 41.3C190.111 42.1133 189.604 42.82 188.938 43.42C188.271 44.02 187.438 44.4867 186.438 44.82C185.451 45.1533 184.318 45.32 183.038 45.32C182.331 45.32 181.644 45.2533 180.978 45.12C180.324 45 179.698 44.8333 179.098 44.62C178.511 44.3933 177.958 44.1267 177.438 43.82C176.931 43.5133 176.478 43.18 176.078 42.82L177.078 41.18C177.198 40.98 177.344 40.8267 177.518 40.72C177.704 40.6 177.931 40.54 178.198 40.54C178.478 40.54 178.751 40.6333 179.018 40.82C179.298 40.9933 179.618 41.1867 179.978 41.4C180.351 41.6133 180.798 41.8133 181.318 42C181.838 42.1733 182.484 42.26 183.258 42.26C183.898 42.26 184.451 42.1867 184.918 42.04C185.384 41.88 185.771 41.6667 186.078 41.4C186.384 41.1333 186.611 40.8333 186.758 40.5C186.904 40.1533 186.978 39.7867 186.978 39.4C186.978 38.88 186.831 38.4533 186.538 38.12C186.244 37.7867 185.851 37.5 185.358 37.26C184.878 37.02 184.324 36.8067 183.698 36.62C183.084 36.4333 182.458 36.2333 181.818 36.02C181.178 35.8067 180.544 35.56 179.918 35.28C179.304 35 178.751 34.6467 178.258 34.22C177.778 33.78 177.391 33.2533 177.098 32.64C176.804 32.0133 176.658 31.2533 176.658 30.36C176.658 29.5467 176.818 28.7733 177.138 28.04C177.471 27.3067 177.951 26.66 178.578 26.1C179.218 25.54 179.998 25.1 180.918 24.78C181.851 24.4467 182.924 24.28 184.138 24.28C185.511 24.28 186.758 24.5 187.878 24.94C188.998 25.38 189.938 25.98 190.698 26.74L189.738 28.3ZM208.398 32.5C208.398 31.78 208.292 31.1133 208.078 30.5C207.878 29.8733 207.578 29.3333 207.178 28.88C206.778 28.4133 206.278 28.0533 205.678 27.8C205.092 27.5333 204.412 27.4 203.638 27.4C202.078 27.4 200.852 27.8467 199.958 28.74C199.065 29.6333 198.498 30.8867 198.258 32.5H208.398ZM198.138 35.14C198.192 36.3 198.372 37.3067 198.678 38.16C198.985 39 199.392 39.7 199.898 40.26C200.418 40.82 201.032 41.24 201.738 41.52C202.458 41.7867 203.258 41.92 204.138 41.92C204.978 41.92 205.705 41.8267 206.318 41.64C206.932 41.44 207.465 41.2267 207.918 41C208.372 40.76 208.758 40.5467 209.078 40.36C209.398 40.16 209.692 40.06 209.958 40.06C210.305 40.06 210.572 40.1933 210.758 40.46L211.978 42.04C211.472 42.64 210.898 43.1467 210.258 43.56C209.618 43.9733 208.938 44.3133 208.218 44.58C207.498 44.8333 206.758 45.0133 205.998 45.12C205.238 45.24 204.498 45.3 203.778 45.3C202.365 45.3 201.052 45.0667 199.838 44.6C198.638 44.12 197.592 43.42 196.698 42.5C195.818 41.58 195.125 40.44 194.618 39.08C194.125 37.72 193.878 36.1533 193.878 34.38C193.878 32.9667 194.098 31.6467 194.538 30.42C194.992 29.1933 195.632 28.1267 196.458 27.22C197.298 26.3133 198.312 25.6 199.498 25.08C200.698 24.5467 202.052 24.28 203.558 24.28C204.812 24.28 205.972 24.4867 207.038 24.9C208.105 25.3 209.025 25.8933 209.798 26.68C210.572 27.4667 211.172 28.4333 211.598 29.58C212.038 30.7133 212.258 32.0067 212.258 33.46C212.258 34.1267 212.185 34.5733 212.038 34.8C211.892 35.0267 211.625 35.14 211.238 35.14H198.138ZM229.288 29.62C228.688 28.8467 228.028 28.3067 227.308 28C226.588 27.6933 225.808 27.54 224.968 27.54C223.288 27.54 221.975 28.16 221.028 29.4C220.082 30.6267 219.608 32.4467 219.608 34.86C219.608 36.1133 219.715 37.1867 219.928 38.08C220.142 38.96 220.448 39.68 220.848 40.24C221.248 40.8 221.735 41.2067 222.308 41.46C222.882 41.7133 223.528 41.84 224.248 41.84C225.342 41.84 226.282 41.6067 227.068 41.14C227.868 40.66 228.608 39.9867 229.288 39.12V29.62ZM233.588 15.4V45H230.988C230.415 45 230.048 44.7267 229.888 44.18L229.508 41.96C228.655 42.96 227.682 43.7667 226.588 44.38C225.508 44.9933 224.248 45.3 222.808 45.3C221.662 45.3 220.622 45.0733 219.688 44.62C218.755 44.1533 217.955 43.48 217.288 42.6C216.622 41.72 216.102 40.6333 215.728 39.34C215.368 38.0333 215.188 36.54 215.188 34.86C215.188 33.34 215.388 31.9333 215.788 30.64C216.202 29.3467 216.788 28.2267 217.548 27.28C218.308 26.32 219.228 25.5733 220.308 25.04C221.402 24.4933 222.622 24.22 223.968 24.22C225.168 24.22 226.188 24.4133 227.028 24.8C227.868 25.1733 228.622 25.7 229.288 26.38V15.4H233.588ZM257.628 24.28C259.134 24.28 260.494 24.5267 261.708 25.02C262.934 25.5133 263.974 26.2133 264.828 27.12C265.694 28.0267 266.361 29.1267 266.828 30.42C267.294 31.7133 267.528 33.1667 267.528 34.78C267.528 36.3933 267.294 37.8467 266.828 39.14C266.361 40.4333 265.694 41.54 264.828 42.46C263.974 43.3667 262.934 44.0667 261.708 44.56C260.494 45.0533 259.134 45.3 257.628 45.3C256.108 45.3 254.734 45.0533 253.508 44.56C252.294 44.0667 251.254 43.3667 250.388 42.46C249.521 41.54 248.854 40.4333 248.388 39.14C247.921 37.8467 247.688 36.3933 247.688 34.78C247.688 33.1667 247.921 31.7133 248.388 30.42C248.854 29.1267 249.521 28.0267 250.388 27.12C251.254 26.2133 252.294 25.5133 253.508 25.02C254.734 24.5267 256.108 24.28 257.628 24.28ZM257.628 41.94C259.468 41.94 260.834 41.3267 261.728 40.1C262.634 38.86 263.088 37.0933 263.088 34.8C263.088 32.5067 262.634 30.74 261.728 29.5C260.834 28.2467 259.468 27.62 257.628 27.62C255.761 27.62 254.374 28.2467 253.468 29.5C252.561 30.74 252.108 32.5067 252.108 34.8C252.108 37.0933 252.561 38.86 253.468 40.1C254.374 41.3267 255.761 41.94 257.628 41.94ZM275.679 27.3C276.119 26.8467 276.572 26.44 277.039 26.08C277.519 25.7067 278.026 25.3867 278.559 25.12C279.092 24.8533 279.659 24.6467 280.259 24.5C280.859 24.3533 281.512 24.28 282.219 24.28C283.339 24.28 284.319 24.4667 285.159 24.84C286.012 25.2133 286.726 25.74 287.299 26.42C287.886 27.1 288.326 27.92 288.619 28.88C288.912 29.8267 289.059 30.8733 289.059 32.02V45H284.779V32.02C284.779 30.6467 284.459 29.58 283.819 28.82C283.192 28.06 282.232 27.68 280.939 27.68C279.979 27.68 279.086 27.9 278.259 28.34C277.446 28.78 276.679 29.38 275.959 30.14V45H271.659V24.6H274.259C274.846 24.6 275.219 24.8733 275.379 25.42L275.679 27.3Z" fill="black"/>
<path d="M141.04 89L131.88 61H138.6L146.56 85.8H143.2L151.52 61H157.52L165.52 85.8H162.28L170.44 61H176.64L167.48 89H160.52L153.44 67.24H155.28L148 89H141.04ZM180.258 89V61H193.938C197.458 61 200.098 61.6667 201.858 63C203.644 64.3333 204.538 66.0933 204.538 68.28C204.538 69.7467 204.178 71.0267 203.458 72.12C202.738 73.1867 201.751 74.0133 200.498 74.6C199.244 75.1867 197.804 75.48 196.178 75.48L196.938 73.84C198.698 73.84 200.258 74.1333 201.618 74.72C202.978 75.28 204.031 76.12 204.778 77.24C205.551 78.36 205.938 79.7333 205.938 81.36C205.938 83.76 204.991 85.64 203.098 87C201.204 88.3333 198.418 89 194.738 89H180.258ZM186.698 84.12H194.258C195.938 84.12 197.204 83.8533 198.057 83.32C198.938 82.76 199.378 81.88 199.378 80.68C199.378 79.5067 198.938 78.64 198.057 78.08C197.204 77.4933 195.938 77.2 194.258 77.2H186.218V72.48H193.138C194.711 72.48 195.911 72.2133 196.738 71.68C197.591 71.12 198.018 70.28 198.018 69.16C198.018 68.0667 197.591 67.2533 196.738 66.72C195.911 66.16 194.711 65.88 193.138 65.88H186.698V84.12ZM220.043 89.48C217.803 89.48 215.657 89.1867 213.603 88.6C211.55 87.9867 209.897 87.2 208.643 86.24L210.843 81.36C212.043 82.2133 213.457 82.92 215.083 83.48C216.737 84.0133 218.403 84.28 220.083 84.28C221.363 84.28 222.39 84.16 223.163 83.92C223.963 83.6533 224.55 83.2933 224.923 82.84C225.297 82.3867 225.483 81.8667 225.483 81.28C225.483 80.5333 225.19 79.9467 224.603 79.52C224.017 79.0667 223.243 78.7067 222.283 78.44C221.323 78.1467 220.257 77.88 219.083 77.64C217.937 77.3733 216.777 77.0533 215.603 76.68C214.457 76.3067 213.403 75.8267 212.443 75.24C211.483 74.6533 210.697 73.88 210.083 72.92C209.497 71.96 209.203 70.7333 209.203 69.24C209.203 67.64 209.63 66.1867 210.483 64.88C211.363 63.5467 212.67 62.4933 214.403 61.72C216.163 60.92 218.363 60.52 221.003 60.52C222.763 60.52 224.497 60.7333 226.203 61.16C227.91 61.56 229.417 62.1733 230.723 63L228.723 67.92C227.417 67.1733 226.11 66.6267 224.803 66.28C223.497 65.9067 222.217 65.72 220.963 65.72C219.71 65.72 218.683 65.8667 217.883 66.16C217.083 66.4533 216.51 66.84 216.163 67.32C215.817 67.7733 215.643 68.3067 215.643 68.92C215.643 69.64 215.937 70.2267 216.523 70.68C217.11 71.1067 217.883 71.4533 218.843 71.72C219.803 71.9867 220.857 72.2533 222.003 72.52C223.177 72.7867 224.337 73.0933 225.483 73.44C226.657 73.7867 227.723 74.2533 228.683 74.84C229.643 75.4267 230.417 76.2 231.003 77.16C231.617 78.12 231.923 79.3333 231.923 80.8C231.923 82.3733 231.483 83.8133 230.603 85.12C229.723 86.4267 228.403 87.48 226.643 88.28C224.91 89.08 222.71 89.48 220.043 89.48ZM244.711 89.32C242.178 89.32 240.205 88.68 238.791 87.4C237.378 86.0933 236.671 84.16 236.671 81.6V62.72H242.911V81.52C242.911 82.4267 243.151 83.1333 243.631 83.64C244.111 84.12 244.765 84.36 245.591 84.36C246.578 84.36 247.418 84.0933 248.111 83.56L249.791 87.96C249.151 88.4133 248.378 88.76 247.471 89C246.591 89.2133 245.671 89.32 244.711 89.32ZM233.351 72.76V67.96H248.271V72.76H233.351ZM266.494 89V84.8L266.094 83.88V76.36C266.094 75.0267 265.681 73.9867 264.854 73.24C264.054 72.4933 262.814 72.12 261.134 72.12C259.987 72.12 258.854 72.3067 257.734 72.68C256.641 73.0267 255.707 73.5067 254.934 74.12L252.694 69.76C253.867 68.9333 255.281 68.2933 256.934 67.84C258.587 67.3867 260.267 67.16 261.974 67.16C265.254 67.16 267.801 67.9333 269.614 69.48C271.427 71.0267 272.334 73.44 272.334 76.72V89H266.494ZM259.934 89.32C258.254 89.32 256.814 89.04 255.614 88.48C254.414 87.8933 253.494 87.1067 252.854 86.12C252.214 85.1333 251.894 84.0267 251.894 82.8C251.894 81.52 252.201 80.4 252.814 79.44C253.454 78.48 254.454 77.7333 255.814 77.2C257.174 76.64 258.947 76.36 261.134 76.36H266.854V80H261.814C260.347 80 259.334 80.24 258.774 80.72C258.241 81.2 257.974 81.8 257.974 82.52C257.974 83.32 258.281 83.96 258.894 84.44C259.534 84.8933 260.401 85.12 261.494 85.12C262.534 85.12 263.467 84.88 264.294 84.4C265.121 83.8933 265.721 83.16 266.094 82.2L267.054 85.08C266.601 86.4667 265.774 87.52 264.574 88.24C263.374 88.96 261.827 89.32 259.934 89.32ZM288.538 89.32C286.218 89.32 284.151 88.8533 282.338 87.92C280.524 86.96 279.098 85.64 278.058 83.96C277.044 82.28 276.538 80.3733 276.538 78.24C276.538 76.08 277.044 74.1733 278.058 72.52C279.098 70.84 280.524 69.5333 282.338 68.6C284.151 67.64 286.218 67.16 288.538 67.16C290.804 67.16 292.778 67.64 294.458 68.6C296.138 69.5333 297.378 70.88 298.178 72.64L293.338 75.24C292.778 74.2267 292.071 73.48 291.218 73C290.391 72.52 289.484 72.28 288.498 72.28C287.431 72.28 286.471 72.52 285.618 73C284.764 73.48 284.084 74.16 283.578 75.04C283.098 75.92 282.858 76.9867 282.858 78.24C282.858 79.4933 283.098 80.56 283.578 81.44C284.084 82.32 284.764 83 285.618 83.48C286.471 83.96 287.431 84.2 288.498 84.2C289.484 84.2 290.391 83.9733 291.218 83.52C292.071 83.04 292.778 82.28 293.338 81.24L298.178 83.88C297.378 85.6133 296.138 86.96 294.458 87.92C292.778 88.8533 290.804 89.32 288.538 89.32ZM306.813 84.6L306.973 77L317.013 67.48H324.453L314.813 77.28L311.573 79.92L306.813 84.6ZM301.653 89V59.32H307.893V89H301.653ZM317.693 89L310.413 79.96L314.333 75.12L325.253 89H317.693Z" fill="#0063BF"/>
</svg>
